<svg xmlns="http://www.w3.org/2000/svg" viewBox="0 0 600 230" role="img" aria-labelledby="title description">
  <title id="title">ELIZA Lab</title>
  <desc id="description">An open-set machine learning pipeline with isolated data partitions, calibrated classification and measured abstention.</desc>
  <rect width="600" height="230" rx="18" fill="#f4f1ea" />
  <g opacity=".08" stroke="#0e1111">
    <path d="M0 46h600M0 92h600M0 138h600M0 184h600" />
    <path d="M60 0v230M120 0v230M180 0v230M240 0v230M300 0v230M360 0v230M420 0v230M480 0v230M540 0v230" />
  </g>
  <text x="34" y="45" fill="#b44a2a" font-family="monospace" font-size="14" letter-spacing="2">02 / OPEN-SET ML</text>
  <text x="34" y="112" fill="#0e1111" font-family="Arial, sans-serif" font-size="44" font-weight="800">ELIZA Lab</text>
  <text x="34" y="154" fill="#5a5d5a" font-family="Arial, sans-serif" font-size="18">Calibrate. Abstain. Explain.</text>
  <g transform="translate(355 35)" font-family="monospace" font-size="8" text-anchor="middle">
    <g fill="#f4f1ea" stroke="#0e1111">
      <rect x="0" y="0" width="58" height="48" rx="6" />
      <rect x="76" y="0" width="58" height="48" rx="6" />
      <rect x="152" y="0" width="58" height="48" rx="6" fill="#0e1111" />
    </g>
    <path d="M58 24h18M134 24h18" stroke="#0e1111" />
    <path d="m71 20 5 4-5 4M147 20l5 4-5 4" fill="none" stroke="#0e1111" />
    <text x="29" y="22" fill="#0e1111">GROUP</text>
    <text x="29" y="34" fill="#0e1111">SPLITS</text>
    <text x="105" y="28" fill="#0e1111">TF-IDF</text>
    <text x="181" y="22" fill="#f4f1ea">SOFTMAX</text>
    <text x="181" y="34" fill="#f4f1ea">+ TEMP.</text>
    <path d="M105 48v24" stroke="#0e1111" />
    <g transform="translate(0 72)">
      <rect width="210" height="30" rx="5" fill="#e7e1d7" stroke="#0e1111" />
      <path d="M52.5 0v30M105 0v30M157.5 0v30" stroke="#0e1111" />
      <text x="26.25" y="19" fill="#0e1111">TRAIN</text>
      <text x="78.75" y="19" fill="#0e1111">DEV</text>
      <text x="131.25" y="19" fill="#0e1111">CAL</text>
      <text x="183.75" y="19" fill="#0e1111">TEST</text>
    </g>
    <g transform="translate(0 116)">
      <rect width="66" height="38" rx="5" fill="#b44a2a" />
      <rect x="72" width="66" height="38" rx="5" fill="#f4f1ea" stroke="#0e1111" />
      <rect x="144" width="66" height="38" rx="5" fill="#0e1111" />
      <text x="33" y="16" fill="#f4f1ea">ID</text>
      <text x="33" y="28" fill="#f4f1ea">METRICS</text>
      <text x="105" y="16" fill="#0e1111">OOD</text>
      <text x="105" y="28" fill="#0e1111">REPORT</text>
      <text x="177" y="16" fill="#f4f1ea">ABSTAIN</text>
      <text x="177" y="28" fill="#f4f1ea">POLICY</text>
    </g>
  </g>
</svg>
