<svg xmlns="http://www.w3.org/2000/svg" viewBox="0 0 600 230" role="img" aria-labelledby="t"><title id="t">VECTOR — Placement Operations</title><rect width="600" height="230" rx="18" fill="#17324d"/><g opacity=".12" stroke="#f5efe5"><path d="M0 46h600M0 92h600M0 138h600M0 184h600M60 0v230M120 0v230M180 0v230M240 0v230M300 0v230M360 0v230M420 0v230M480 0v230M540 0v230"/></g><path d="M426 65h42l25 37 34-49 39 64-41 57-42-42-35 29" fill="none" stroke="#f5efe5" stroke-width="3" opacity=".75"/><circle cx="426" cy="65" r="8" fill="#ff6b56"/><circle cx="468" cy="65" r="7" fill="#f5efe5"/><circle cx="493" cy="102" r="9" fill="#ff6b56"/><circle cx="527" cy="53" r="7" fill="#f5efe5"/><circle cx="566" cy="117" r="9" fill="#ff6b56"/><circle cx="525" cy="174" r="7" fill="#f5efe5"/><circle cx="483" cy="132" r="8" fill="#ff6b56"/><circle cx="448" cy="161" r="7" fill="#f5efe5"/><text x="34" y="45" fill="#ff6b56" font-family="monospace" font-size="14" letter-spacing="2">06 / PLACEMENT OPS</text><text x="34" y="117" fill="#f5efe5" font-family="Arial" font-size="44" font-weight="800">VECTOR</text><text x="34" y="162" fill="#b8c3cc" font-family="Arial" font-size="19">One cohort. One clear picture.</text></svg>
